<svg width="75" height="75" viewBox="0 0 75 75" fill="none" xmlns="http://www.w3.org/2000/svg">
<path d="M37.0815 0C38.3609 0 39.3992 1.03833 39.3992 2.31771V6.95313C39.3992 7.56782 39.155 8.15734 38.7203 8.59199C38.2857 9.02665 37.6962 9.27083 37.0815 9.27083C36.4668 9.27083 35.8773 9.02665 35.4426 8.59199C35.008 8.15734 34.7638 7.56782 34.7638 6.95313V2.31771C34.7638 1.03833 35.8021 0 37.0815 0ZM37.1705 55.6621C47.3851 55.6621 55.6658 47.3832 55.6658 37.1686C55.6658 26.9522 47.3851 18.6715 37.1705 18.6715C26.954 18.6715 18.6733 26.9522 18.6733 37.1686C18.6733 47.3832 26.954 55.6639 37.1705 55.6639V55.6621ZM37.1705 51.0267C33.4946 51.0267 29.9693 49.5664 27.3701 46.9672C24.7708 44.368 23.3106 40.8426 23.3106 37.1668C23.3106 33.4909 24.7708 29.9656 27.3701 27.3663C29.9693 24.7671 33.4946 23.3069 37.1705 23.3069C40.8464 23.3069 44.3717 24.7671 46.9709 27.3663C49.5701 29.9656 51.0304 33.4909 51.0304 37.1668C51.0304 40.8426 49.5701 44.368 46.9709 46.9672C44.3717 49.5664 40.8464 51.0267 37.1705 51.0267V51.0267ZM71.849 39.401C72.4637 39.401 73.0532 39.1569 73.4878 38.7222C73.9225 38.2875 74.1667 37.698 74.1667 37.0833C74.1667 36.4686 73.9225 35.8791 73.4878 35.4445C73.0532 35.0098 72.4637 34.7656 71.849 34.7656H67.2135C66.5989 34.7656 66.0093 35.0098 65.5747 35.4445C65.14 35.8791 64.8958 36.4686 64.8958 37.0833C64.8958 37.698 65.14 38.2875 65.5747 38.7222C66.0093 39.1569 66.5989 39.401 67.2135 39.401H71.849ZM37.0815 64.894C38.3609 64.894 39.3992 65.9323 39.3992 67.2117V71.8471C39.3992 72.4618 39.155 73.0513 38.7203 73.486C38.2857 73.9206 37.6962 74.1648 37.0815 74.1648C36.4668 74.1648 35.8773 73.9206 35.4426 73.486C35.008 73.0513 34.7638 72.4618 34.7638 71.8471V67.2117C34.7638 65.9323 35.8021 64.894 37.0815 64.894ZM6.95313 39.3992C7.56782 39.3992 8.15734 39.155 8.59199 38.7204C9.02665 38.2857 9.27083 37.6962 9.27083 37.0815C9.27083 36.4668 9.02665 35.8773 8.59199 35.4426C8.15734 35.008 7.56782 34.7638 6.95313 34.7638H2.31771C1.70301 34.7638 1.1135 35.008 0.678841 35.4426C0.244186 35.8773 0 36.4668 0 37.0815C0 37.6962 0.244186 38.2857 0.678841 38.7204C1.1135 39.155 1.70301 39.3992 2.31771 39.3992H6.95313ZM9.94946 9.94575C10.1647 9.73047 10.4202 9.55969 10.7015 9.44318C10.9827 9.32666 11.2841 9.26669 11.5885 9.26669C11.893 9.26669 12.1944 9.32666 12.4756 9.44318C12.7569 9.55969 13.0124 9.73047 13.2276 9.94575L17.863 14.5812C18.0783 14.7964 18.249 15.052 18.3655 15.3332C18.482 15.6144 18.542 15.9158 18.542 16.2202C18.542 16.5247 18.482 16.8261 18.3655 17.1073C18.249 17.3886 18.0783 17.6441 17.863 17.8593C17.6478 18.0746 17.3923 18.2453 17.111 18.3618C16.8298 18.4783 16.5284 18.5383 16.224 18.5383C15.9196 18.5383 15.6181 18.4783 15.3369 18.3618C15.0557 18.2453 14.8001 18.0746 14.5849 17.8593L9.94946 13.2239C9.73418 13.0087 9.5634 12.7532 9.44688 12.4719C9.33037 12.1907 9.2704 11.8893 9.2704 11.5848C9.2704 11.2804 9.33037 10.979 9.44688 10.6977C9.5634 10.4165 9.73418 10.161 9.94946 9.94575V9.94575ZM13.2276 64.2154C13.0124 64.4306 12.7568 64.6014 12.4756 64.7178C12.1944 64.8343 11.8929 64.8943 11.5885 64.8943C11.2841 64.8943 10.9827 64.8343 10.7015 64.7178C10.4202 64.6014 10.1647 64.4306 9.94946 64.2154C9.73421 64.0001 9.56347 63.7446 9.44698 63.4633C9.33049 63.1821 9.27053 62.8807 9.27053 62.5763C9.27053 62.2719 9.33049 61.9704 9.44698 61.6892C9.56347 61.408 9.73421 61.1524 9.94946 60.9372L14.5849 56.3018C14.8001 56.0865 15.0557 55.9158 15.3369 55.7993C15.6181 55.6828 15.9196 55.6228 16.224 55.6228C16.5284 55.6228 16.8298 55.6828 17.111 55.7993C17.3923 55.9158 17.6478 56.0865 17.863 56.3018C18.0783 56.517 18.249 56.7726 18.3655 57.0538C18.482 57.335 18.542 57.6365 18.542 57.9409C18.542 58.2453 18.482 58.5467 18.3655 58.8279C18.249 59.1092 18.0783 59.3647 17.863 59.5799L13.2276 64.2154ZM64.2172 9.94575C63.7826 9.51153 63.1934 9.26762 62.5791 9.26762C61.9647 9.26762 61.3755 9.51153 60.9409 9.94575L56.3055 14.5812C55.8708 15.0159 55.6266 15.6055 55.6266 16.2202C55.6266 16.835 55.8708 17.4246 56.3055 17.8593C56.7402 18.294 57.3298 18.5383 57.9446 18.5383C58.5593 18.5383 59.1489 18.294 59.5836 17.8593L64.2191 13.2239C64.4343 13.0087 64.6051 12.7532 64.7216 12.4719C64.8382 12.1907 64.8981 11.8893 64.8981 11.5848C64.8981 11.2804 64.8382 10.979 64.7216 10.6977C64.6051 10.4165 64.4343 10.161 64.2191 9.94575H64.2172ZM60.9409 64.2154C61.3756 64.6501 61.9652 64.8943 62.58 64.8943C63.1948 64.8943 63.7844 64.6501 64.2191 64.2154C64.6538 63.7806 64.898 63.1911 64.898 62.5763C64.898 61.9615 64.6538 61.3719 64.2191 60.9372L59.5836 56.3018C59.1489 55.8671 58.5593 55.6228 57.9446 55.6228C57.3298 55.6228 56.7402 55.8671 56.3055 56.3018C55.8708 56.7365 55.6266 57.3261 55.6266 57.9409C55.6266 58.5556 55.8708 59.1452 56.3055 59.5799L60.9409 64.2154Z" fill="black"/>
</svg>
