<svg width="39" height="32" viewBox="0 0 39 32" fill="none" xmlns="http://www.w3.org/2000/svg">
<path d="M21.9088 9.82835C27.9249 9.82835 31.3407 13.7035 31.8364 18.3866H31.9877C35.8601 18.3866 39 21.434 39 25.1933C39 28.9526 35.8601 32 31.9877 32H11.8299C7.95753 32 4.81763 28.9526 4.81763 25.1933C4.81763 21.434 7.95753 18.3866 11.8299 18.3866H11.9813C12.4794 13.6714 15.8903 9.82835 21.9088 9.82835ZM21.9088 12.2919C17.8802 12.2919 14.3716 15.4205 14.3716 19.744C14.3716 20.4289 13.7514 20.9659 13.0409 20.9659H11.6981C9.24669 20.9634 7.25923 22.885 7.25923 25.25C7.25923 27.6149 9.24669 29.5365 11.6981 29.5365H32.1196C34.5709 29.5365 36.5584 27.6149 36.5584 25.25C36.5584 22.885 34.5709 20.9634 32.1196 20.9634H30.7767C30.0662 20.9659 29.446 20.4289 29.446 19.744C29.446 15.3663 25.935 12.2919 21.9088 12.2919ZM4.33664 16.4798C4.4305 16.753 4.42616 17.0507 4.32439 17.3209C4.22262 17.5911 4.02989 17.8167 3.77995 17.958L3.57974 18.0466L1.62402 18.7266C1.3354 18.8285 1.0194 18.8174 0.738497 18.6955C0.457596 18.5736 0.232257 18.3498 0.107046 18.0683C-0.0181658 17.7869 -0.0341313 17.4682 0.0623066 17.1755C0.158744 16.8827 0.360563 16.6371 0.627848 16.4872L0.828059 16.3985L2.78622 15.7186C3.0922 15.6127 3.42734 15.6336 3.71804 15.7768C4.00874 15.92 4.23122 16.1737 4.33664 16.4823V16.4798ZM16.8303 6.13307C17.6433 6.53216 18.3563 7.05197 18.9642 7.66045C17.973 7.86493 17.0452 8.17779 16.1906 8.58427C15.0879 7.91458 13.7892 7.65111 12.5156 7.8387C11.2421 8.0263 10.0722 8.65337 9.20529 9.6132C8.33834 10.573 7.8278 11.8063 7.76056 13.1032C7.69332 14.4 8.07354 15.6803 8.8365 16.7262C8.03077 16.9676 7.27388 17.3199 6.57802 17.7609C5.63406 16.2772 5.19692 14.5228 5.33328 12.7651C5.46964 11.0075 6.172 9.34304 7.33326 8.02566C8.49451 6.70829 10.0509 5.81027 11.7652 5.46857C13.4794 5.12687 15.2573 5.36023 16.8278 6.13307H16.8303ZM2.17338 6.55187L2.37603 6.6307L4.23653 7.54467C4.5108 7.6792 4.72524 7.91243 4.83765 8.19847C4.95005 8.48451 4.95228 8.80264 4.84389 9.09025C4.7355 9.37786 4.52435 9.61413 4.25199 9.75255C3.97962 9.89097 3.66577 9.92153 3.3722 9.8382L3.16467 9.75937L1.30661 8.84541C1.03234 8.71088 0.817898 8.47765 0.705495 8.19161C0.593091 7.90557 0.590864 7.58744 0.699252 7.29983C0.80764 7.01221 1.01879 6.77595 1.29116 6.63752C1.56352 6.4991 1.87737 6.46855 2.17094 6.55187H2.17338ZM19.4428 0.70102C19.6999 0.827571 19.9047 1.04118 20.0216 1.30457C20.1386 1.56795 20.1601 1.8644 20.0825 2.14218L20.0044 2.34911L19.0985 4.22631C18.9652 4.50305 18.734 4.71941 18.4506 4.83283C18.1671 4.94624 17.8518 4.94849 17.5667 4.83913C17.2817 4.72976 17.0475 4.51672 16.9103 4.24191C16.7731 3.9671 16.7428 3.65043 16.8254 3.35423L16.9035 3.14483L17.8094 1.26763C17.8797 1.12185 17.9778 0.991503 18.0982 0.884077C18.2185 0.77665 18.3587 0.694253 18.5107 0.641612C18.6627 0.588971 18.8235 0.567121 18.9838 0.577316C19.1442 0.58751 19.301 0.629549 19.4452 0.70102H19.4428ZM10.1891 0.622187L10.2795 0.824196L10.9534 2.79994C11.0524 3.09077 11.0401 3.40847 10.9188 3.69058C10.7974 3.97269 10.5759 4.19881 10.2977 4.32448C10.0195 4.45016 9.70484 4.46629 9.41547 4.36971C9.12609 4.27314 8.88299 4.07084 8.73395 3.80259L8.64361 3.60058L7.97217 1.6273C7.87467 1.33716 7.88783 1.02076 8.00908 0.739877C8.13034 0.458993 8.35099 0.233785 8.62796 0.108214C8.90493 -0.0173563 9.21834 -0.0342755 9.507 0.0607595C9.79567 0.155794 10.0389 0.355962 10.1891 0.622187V0.622187Z" fill="black"/>
</svg>
