<svg width="30" height="27" viewBox="0 0 30 27" fill="none" xmlns="http://www.w3.org/2000/svg">
<path d="M7.26923 24.9231H21.8077C22.0672 24.9226 22.3175 25.0193 22.5092 25.1941C22.701 25.369 22.8204 25.6093 22.8438 25.8677C22.8673 26.1261 22.7931 26.384 22.6359 26.5905C22.4788 26.797 22.25 26.9372 21.9946 26.9834L21.8077 27H7.26923C7.00973 27.0005 6.75945 26.9038 6.56768 26.7289C6.37591 26.5541 6.25655 26.3138 6.2331 26.0554C6.20966 25.7969 6.28382 25.5391 6.44099 25.3326C6.59817 25.1261 6.82695 24.9859 7.08231 24.9397L7.26923 24.9231V24.9231ZM3.12369 20.7692H25.9532C26.5306 20.7692 27 21.2345 27 21.8077C27 22.3186 26.6303 22.7423 26.1422 22.8295L25.9553 22.8462H3.12161C2.9847 22.8467 2.84901 22.8203 2.72231 22.7684C2.5956 22.7165 2.48036 22.6401 2.38316 22.5437C2.28595 22.4473 2.2087 22.3327 2.1558 22.2064C2.1029 22.0801 2.07539 21.9446 2.07485 21.8077C2.07485 21.2988 2.44454 20.8731 2.93262 20.7879L3.11954 20.7692H3.12369ZM14.5385 0C19.6581 0 22.5616 3.26908 22.9832 7.21523H23.112C26.406 7.21523 29.0769 9.78438 29.0769 12.9538C29.0769 16.1232 26.406 18.6923 23.112 18.6923H5.96492C2.67092 18.6923 0 16.1232 0 12.9538C0 9.90277 2.47569 7.40838 5.60146 7.22561L6.09369 7.21523C6.51946 3.24415 9.41885 0 14.5385 0V0ZM14.5385 2.07692C11.1115 2.07692 8.127 4.71461 8.127 8.35961C8.127 8.937 7.59946 9.39185 6.99508 9.39185H5.85277C3.76754 9.39185 2.07692 11.0077 2.07692 13.0036C2.07692 14.9975 3.76754 16.6175 5.85277 16.6175H23.2242C25.3094 16.6175 27 14.9975 27 13.0036C27 11.0098 25.3094 9.38977 23.2242 9.38977H22.0818C21.4795 9.38977 20.9499 8.937 20.9499 8.35961C20.9499 4.66892 17.9633 2.07692 14.5385 2.07692Z" fill="black"/>
</svg>
