<svg width="33" height="32" viewBox="0 0 33 32" fill="none" xmlns="http://www.w3.org/2000/svg">
<path d="M16.0117 0C21.6502 0 24.8479 3.60036 25.3123 7.9464H25.4541C29.0819 7.9464 32.0235 10.7759 32.0235 14.2665C32.0235 17.757 29.0819 20.5865 25.4541 20.5865L23.8461 20.5842V20.5865H23.7774L21.5884 24.5689C21.4393 24.8291 21.194 25.0203 20.9052 25.1014C20.6165 25.1825 20.3075 25.1469 20.0447 25.0023C19.782 24.8577 19.5865 24.6157 19.5005 24.3284C19.4144 24.0412 19.4447 23.7316 19.5847 23.4664L21.1698 20.5842H17.0113V20.5865H16.9176L14.7262 24.5689C14.5771 24.8291 14.3318 25.0203 14.0431 25.1014C13.7543 25.1825 13.4453 25.1469 13.1826 25.0023C12.9198 24.8577 12.7244 24.6157 12.6383 24.3284C12.5522 24.0412 12.5825 23.7316 12.7225 23.4664L14.3076 20.5842H10.1377V20.5865H10.0554L7.86406 24.5689C7.71495 24.8291 7.46962 25.0203 7.18088 25.1014C6.89215 25.1825 6.58313 25.1469 6.32038 25.0023C6.05763 24.8577 5.86218 24.6157 5.77613 24.3284C5.69007 24.0412 5.7203 23.7316 5.8603 23.4664L7.44546 20.5842L6.56939 20.5865C2.94159 20.5865 0 17.757 0 14.2665C0 10.904 2.72657 8.15684 6.1691 7.95784L6.71121 7.9464C7.18012 3.57062 10.3733 0 16.0117 0ZM9.40118 18.2991H25.5753C27.8765 18.2991 29.7361 16.5173 29.7361 14.3191C29.7361 12.1232 27.8742 10.3413 25.5776 10.3413H24.3196C23.6562 10.3413 23.0729 9.84265 23.0729 9.20676C23.0729 5.14206 19.7859 2.28739 16.0117 2.28739C12.2375 2.28739 8.95057 5.19238 8.95057 9.20676C8.95057 9.84265 8.36957 10.3413 7.70394 10.3413H6.44587C4.14933 10.3413 2.28739 12.1232 2.28739 14.3214C2.28739 16.515 4.14933 18.2991 6.44587 18.2991H9.35772C9.37297 18.2989 9.38822 18.2989 9.40347 18.2991H9.40118ZM10.8605 25.8841C11.1238 26.0346 11.3164 26.2835 11.3962 26.5761C11.476 26.8686 11.4364 27.1808 11.286 27.4441L8.9986 31.4471C8.84434 31.7028 8.59618 31.888 8.30715 31.9632C8.01812 32.0383 7.71116 31.9975 7.45187 31.8493C7.19258 31.7011 7.00152 31.4574 6.91954 31.1703C6.83756 30.8831 6.87116 30.5753 7.01314 30.3125L9.30054 26.3096C9.45105 26.0464 9.69993 25.8537 9.99246 25.7739C10.285 25.6941 10.5972 25.7338 10.8605 25.8841ZM18.1482 27.4441C18.2902 27.1814 18.3238 26.8736 18.2418 26.5864C18.1598 26.2992 17.9687 26.0555 17.7094 25.9074C17.4502 25.7592 17.1432 25.7183 16.8542 25.7935C16.5651 25.8686 16.317 26.0539 16.1627 26.3096L13.8753 30.3125C13.7333 30.5753 13.6997 30.8831 13.7817 31.1703C13.8637 31.4574 14.0548 31.7011 14.314 31.8493C14.5733 31.9975 14.8803 32.0383 15.1693 31.9632C15.4584 31.888 15.7065 31.7028 15.8608 31.4471L18.1482 27.4441V27.4441Z" fill="black"/>
</svg>
