<svg width="20" height="20" viewBox="0 0 20 20" fill="none" xmlns="http://www.w3.org/2000/svg">
<path d="M9.75 0C9.93124 7.6429e-06 10.1063 0.0656426 10.2429 0.184767C10.3795 0.303891 10.4684 0.468446 10.493 0.648L10.5 0.75L10.499 4.096L12.671 2.188C12.745 2.123 12.8311 2.0732 12.9243 2.04147C13.0176 2.00973 13.1161 1.99667 13.2144 2.00303C13.3127 2.00939 13.4088 2.03505 13.4972 2.07854C13.5856 2.12203 13.6645 2.1825 13.7295 2.2565C13.7945 2.3305 13.8443 2.41658 13.876 2.50982C13.9078 2.60307 13.9208 2.70165 13.9145 2.79994C13.9081 2.89823 13.8825 2.9943 13.839 3.08268C13.7955 3.17105 13.735 3.25 13.661 3.315L10.5 6.093L10.499 8.999H13.408L16.188 5.839C16.3065 5.70384 16.4697 5.61575 16.6477 5.59079C16.8258 5.56582 17.0069 5.60565 17.158 5.703L17.246 5.77C17.381 5.88867 17.4689 6.05189 17.4937 6.22992C17.5185 6.40796 17.4785 6.58897 17.381 6.74L17.314 6.829L15.406 8.998H18.751C18.9324 8.99804 19.1076 9.06382 19.2442 9.18314C19.3808 9.30247 19.4696 9.46727 19.494 9.647L19.501 9.749C19.501 9.93024 19.4354 10.1053 19.3162 10.2419C19.1971 10.3785 19.0326 10.4674 18.853 10.492L18.751 10.499H15.403L17.312 12.671C17.4309 12.806 17.4974 12.9792 17.4992 13.1591C17.501 13.339 17.4382 13.5136 17.322 13.651L17.244 13.73C17.109 13.8489 16.9358 13.9154 16.7559 13.9172C16.576 13.919 16.4014 13.8562 16.264 13.74L16.185 13.662L13.406 10.499L10.498 10.498L10.499 13.406L13.663 16.186C13.798 16.3047 13.8859 16.4679 13.9107 16.6459C13.9355 16.824 13.8955 17.005 13.798 17.156L13.731 17.244C13.6125 17.3792 13.4493 17.4673 13.2713 17.4922C13.0932 17.5172 12.9121 17.4774 12.761 17.38L12.673 17.313L10.499 15.403L10.498 18.75C10.498 18.9314 10.4322 19.1066 10.3129 19.2432C10.1935 19.3798 10.0287 19.4686 9.849 19.493L9.748 19.5C9.56676 19.5 9.39166 19.4344 9.25507 19.3152C9.11848 19.1961 9.02965 19.0316 9.005 18.852L8.998 18.75L8.997 15.406L6.83 17.313C6.68055 17.4443 6.48507 17.5108 6.28656 17.498C6.08806 17.4851 5.90278 17.3939 5.7715 17.2445C5.64022 17.095 5.57368 16.8996 5.58653 16.7011C5.59937 16.5026 5.69055 16.3173 5.84 16.186L8.998 13.408V10.499H6.312L3.315 13.911C3.18372 14.0604 2.99844 14.1516 2.79994 14.1645C2.60143 14.1773 2.40595 14.1108 2.2565 13.9795C2.10705 13.8482 2.01587 13.6629 2.00303 13.4644C1.99018 13.2659 2.05672 13.0704 2.188 12.921L4.316 10.5H0.75C0.568762 10.5 0.393658 10.4344 0.257069 10.3152C0.120481 10.1961 0.0316483 10.0316 0.00699997 9.852L0 9.75C7.6429e-06 9.56876 0.0656426 9.39366 0.184767 9.25707C0.303891 9.12048 0.468446 9.03165 0.648 9.007L0.75 9H3.874L2.188 7.078C2.05672 6.92855 1.99018 6.73307 2.00303 6.53456C2.01587 6.33606 2.10705 6.15078 2.2565 6.0195C2.40595 5.88822 2.60143 5.82168 2.79994 5.83453C2.99844 5.84737 3.18372 5.93855 3.315 6.088L5.87 9H8.998V6.091L5.838 3.313C5.70299 3.19433 5.6151 3.03111 5.59032 2.85308C5.56554 2.67504 5.60553 2.49403 5.703 2.343L5.77 2.254C5.88867 2.11899 6.05189 2.0311 6.22992 2.00632C6.40796 1.98154 6.58897 2.02153 6.74 2.119L6.829 2.186L8.999 4.094L9 0.75C8.99997 0.585916 9.05374 0.426349 9.15308 0.295757C9.25243 0.165165 9.39186 0.0707556 9.55 0.027L9.648 0.00699997L9.75 0Z" fill="black"/>
</svg>
