<svg width="41" height="39" viewBox="0 0 41 39" fill="none" xmlns="http://www.w3.org/2000/svg">
<path d="M12.75 33.15C13.4263 33.15 14.0749 33.4187 14.5531 33.8969C15.0313 34.3751 15.3 35.0237 15.3 35.7C15.3 36.3763 15.0313 37.0249 14.5531 37.5031C14.0749 37.9813 13.4263 38.25 12.75 38.25C12.0737 38.25 11.4251 37.9813 10.9469 37.5031C10.4687 37.0249 10.2 36.3763 10.2 35.7C10.2 35.0237 10.4687 34.3751 10.9469 33.8969C11.4251 33.4187 12.0737 33.15 12.75 33.15ZM34.7131 15.861C36.2867 15.8728 37.7947 16.4923 38.9222 17.59C40.0497 18.6876 40.7093 20.1785 40.7633 21.7511C40.8173 23.3238 40.2614 24.8564 39.2119 26.0288C38.1624 27.2012 36.7003 27.9226 35.1314 28.0424L34.6417 28.0551L34.4301 28.0704H31.3548C31.9158 28.9323 32.2396 29.9625 32.2396 31.0667C32.2396 34.1649 29.9115 36.641 26.8387 36.641C23.7838 36.641 21.958 34.8713 21.4633 32.4003C21.4251 32.2342 21.4205 32.0621 21.4499 31.8942C21.4792 31.7263 21.542 31.566 21.6344 31.4228C21.7268 31.2795 21.847 31.1563 21.9879 31.0603C22.1287 30.9643 22.2874 30.8976 22.4545 30.864C22.6216 30.8304 22.7938 30.8306 22.9608 30.8647C23.1278 30.8988 23.2863 30.9661 23.4268 31.0625C23.5674 31.1588 23.6872 31.2825 23.7792 31.426C23.8712 31.5695 23.9335 31.73 23.9624 31.898C24.2352 33.2546 25.0971 34.091 26.8387 34.091C28.4682 34.091 29.6871 32.7905 29.6871 31.0667C29.6871 29.6132 28.6416 28.3994 27.2468 28.1163L26.8872 28.0679L1.28775 28.0704C0.969138 28.071 0.661852 27.9523 0.426403 27.7376C0.190954 27.5229 0.0444062 27.2279 0.0156181 26.9106C-0.0131701 26.5933 0.0778879 26.2767 0.27086 26.0232C0.463833 25.7697 0.744735 25.5976 1.05825 25.5408L1.28775 25.5204L26.4843 25.5179L26.6296 25.5051C26.7622 25.5051 26.8974 25.5102 27.03 25.5204H34.4301L34.4939 25.5255L34.7131 25.5051C36.5593 25.5051 38.0766 24.1001 38.2475 22.2998L38.2653 21.9606C38.2944 21.0195 37.9484 20.1054 37.3036 19.4194C36.6587 18.7334 35.7677 18.3317 34.8266 18.3026C34.3607 18.2882 33.8964 18.3657 33.4604 18.5308C33.0244 18.6958 32.6251 18.9451 32.2855 19.2644C31.5995 19.9092 31.1977 20.8002 31.1686 21.7413C31.1618 21.9107 31.1213 22.0771 31.0494 22.2307C30.9775 22.3843 30.8757 22.522 30.75 22.6357C30.6242 22.7495 30.477 22.837 30.317 22.8931C30.157 22.9493 29.9874 22.973 29.8182 22.9628C29.6489 22.9527 29.4834 22.9088 29.3312 22.8339C29.1791 22.7589 29.0435 22.6544 28.9323 22.5264C28.821 22.3984 28.7365 22.2495 28.6835 22.0884C28.6305 21.9274 28.6102 21.7573 28.6238 21.5883C28.7192 20.0382 29.4023 18.5828 30.5339 17.5191C31.6654 16.4553 33.1601 15.8632 34.7131 15.8636V15.861ZM19.8008 3.9525C20.8831 3.94982 21.9553 4.16034 22.9562 4.57205C23.9572 4.98375 24.8672 5.58858 25.6344 6.35198C26.4016 7.11539 27.0109 8.02244 27.4276 9.02133C27.8442 10.0202 28.0601 11.0914 28.0627 12.1737C28.0654 13.256 27.8549 14.3282 27.4432 15.3292C27.0315 16.3301 26.4267 17.2402 25.6633 18.0074C24.8999 18.7746 23.9928 19.3839 22.9939 19.8005C21.995 20.2172 20.9239 20.433 19.8415 20.4357H1.28775C0.969138 20.4363 0.661852 20.3176 0.426403 20.1029C0.190954 19.8882 0.0444062 19.5932 0.0156181 19.2759C-0.0131701 18.9586 0.0778879 18.642 0.27086 18.3885C0.463833 18.135 0.744735 17.9629 1.05825 17.9061L1.28775 17.8857H19.8008C20.9258 17.8857 22.0256 17.5521 22.9612 16.9271C23.8967 16.3021 24.6258 15.4137 25.0565 14.3743C25.4872 13.335 25.6 12.1912 25.3807 11.0877C25.1614 9.98421 24.6198 8.97052 23.8244 8.17479C23.029 7.37906 22.0156 6.83703 20.9122 6.61723C19.8088 6.39742 18.665 6.50972 17.6254 6.93992C16.5858 7.37012 15.6971 8.0989 15.0717 9.03413C14.4463 9.96935 14.1122 11.069 14.1117 12.1941C14.1117 12.5323 13.9774 12.8566 13.7383 13.0957C13.4992 13.3348 13.1749 13.4691 12.8367 13.4691C12.4985 13.4691 12.1742 13.3348 11.9351 13.0957C11.696 12.8566 11.5617 12.5323 11.5617 12.1941C11.5617 10.009 12.4297 7.91333 13.9749 6.36821C15.52 4.82309 17.6156 3.95505 19.8008 3.95505V3.9525ZM2.55 2.55C3.2263 2.55 3.8749 2.81866 4.35312 3.29688C4.83134 3.7751 5.1 4.4237 5.1 5.1C5.1 5.7763 4.83134 6.4249 4.35312 6.90312C3.8749 7.38134 3.2263 7.65 2.55 7.65C1.8737 7.65 1.2251 7.38134 0.746878 6.90312C0.26866 6.4249 0 5.7763 0 5.1C0 4.4237 0.26866 3.7751 0.746878 3.29688C1.2251 2.81866 1.8737 2.55 2.55 2.55V2.55ZM38.25 0C38.9263 0 39.5749 0.26866 40.0531 0.746878C40.5313 1.2251 40.8 1.8737 40.8 2.55C40.8 3.2263 40.5313 3.8749 40.0531 4.35312C39.5749 4.83134 38.9263 5.1 38.25 5.1C37.5737 5.1 36.9251 4.83134 36.4469 4.35312C35.9687 3.8749 35.7 3.2263 35.7 2.55C35.7 1.8737 35.9687 1.2251 36.4469 0.746878C36.9251 0.26866 37.5737 0 38.25 0Z" fill="black"/>
</svg>
